<svg xmlns="http://www.w3.org/2000/svg" viewBox="0 0 200 200" width="440" height="440"><title>LEVEL_1</title><rect width="200" height="200" fill="white"/><circle cx="100" cy="100" r="70" fill="#c9c9c9"/><line x1="20" y1="100" x2="180" y2="100" stroke="#e77" stroke-width="0.8" stroke-dasharray="3 3"/><path d="M29.53,71.53 A76,76 0 0 1 176,100 L170,100 L108,100 L93,85 L31.6,85 Z" fill="#8ab4d8" fill-opacity="0.5" stroke="#111" stroke-width="2.6" stroke-linejoin="round"/><circle cx="100" cy="100" r="2.5" fill="#555"/><circle cx="29.53" cy="71.53" r="1.7" fill="#d22"/><text x="20.53" y="70.53" font-family="sans-serif" font-size="8" font-weight="bold" fill="#b00">F</text><circle cx="176" cy="100" r="1.7" fill="#d22"/><text x="182" y="104" font-family="sans-serif" font-size="8" font-weight="bold" fill="#b00">D</text><circle cx="108" cy="100" r="1.7" fill="#d22"/><text x="111" y="108" font-family="sans-serif" font-size="8" font-weight="bold" fill="#b00">C</text><circle cx="93" cy="85" r="1.7" fill="#d22"/><text x="87" y="82" font-family="sans-serif" font-size="8" font-weight="bold" fill="#b00">B</text><circle cx="31.6" cy="85" r="1.7" fill="#d22"/><text x="22.6" y="82" font-family="sans-serif" font-size="8" font-weight="bold" fill="#b00">E</text><circle cx="100" cy="100" r="1.7" fill="#d22"/><text x="91" y="105" font-family="sans-serif" font-size="8" font-weight="bold" fill="#b00">O</text></svg>